<svg width="392" height="335" viewBox="0 0 392 335" fill="none" xmlns="http://www.w3.org/2000/svg">
<path d="M391.582 9.0533V45.743H99.7526C93.4582 45.743 89.1664 45.1077 86.8776 43.8371C84.5887 42.5664 83.4444 40.184 83.4444 36.6897L117.483 0H375.273C386.145 0 391.582 3.01777 391.582 9.0533Z" fill="#F22601"/>
<path d="M217.453 332.387C215.872 331.112 215.081 328.88 215.081 325.692V165.476C215.081 116.059 259.91 75.0967 286.784 48.0413C301.855 32.8689 333.5 0 382.506 0C388.514 0 391.519 3.02895 391.519 9.08685V45.9125H370.923C358.365 45.9125 302.105 43.469 286.784 57.9026C259.407 83.6937 263.464 170.02 263.464 170.02V334.779C247.652 334.779 236.426 334.619 229.786 334.3C222.829 333.982 218.718 333.344 217.453 332.387Z" fill="#F22601"/>
<path d="M206.969 334.747H201.028C201.028 334.747 168.96 242.803 146.553 177.194C145.37 172.667 139.089 159.349 128.122 159.349C114.413 159.349 106.601 179.195 109.02 194.788C111.439 210.381 136.272 249.489 123.773 294.256C111.274 339.023 28.417 352.603 7.65243 304.567C4.85096 298.086 -7.21261 274.712 6.24125 233.896C18.4388 196.892 52.8535 95.0668 75.2128 29.0688C81.1072 11.6703 97.4243 0.00268555 115.794 0.00268555H146.553L69.7445 220.818C56.7424 256.113 56.9766 301.076 82.8812 304.567C120.582 309.648 119.595 245.575 112.539 218.916C105.483 192.257 100.708 175.795 113.772 145.757C124.053 122.116 159.442 106.043 181.71 124.882C199.249 139.721 204.088 157.829 210.992 177.194L247.273 277.262C257.408 305.216 236.703 334.747 206.969 334.747Z" fill="#070C11"/>
</svg>
