<svg width="1600" height="335" viewBox="0 0 1600 335" fill="none" xmlns="http://www.w3.org/2000/svg">
<path d="M1553.75 334.782L1501.78 206.569C1499.23 199.605 1496.37 191.374 1493.19 181.876C1490.02 172.062 1486.84 161.615 1483.66 150.535C1480.8 139.455 1477.94 128.692 1475.08 118.245C1472.53 107.481 1470.15 97.6672 1467.92 88.8031C1465.7 79.939 1463.79 72.816 1462.2 67.4342C1460.93 62.0524 1460.29 59.3615 1460.29 59.3615L1432.16 30.8697L1434.55 2.37793H1472.69L1523.71 128.217C1526.57 135.498 1529.59 144.204 1532.77 154.334C1535.95 164.465 1539.13 175.07 1542.31 186.15C1545.48 196.914 1548.35 207.519 1550.89 217.966C1553.75 228.096 1556.13 237.435 1558.04 245.983C1560.27 254.53 1562.01 261.337 1563.29 266.402C1564.56 271.467 1565.19 274 1565.19 274L1594.76 306.291L1590.94 334.782H1553.75ZM1425.49 334.782V11.4003C1425.49 5.3854 1428.51 2.37793 1434.55 2.37793L1474.12 11.4003L1466.97 83.5796C1467.92 89.5945 1468.56 96.2426 1468.88 103.524C1469.51 110.489 1470.15 118.086 1470.78 126.317C1471.42 134.232 1471.9 142.146 1472.21 150.06C1472.85 157.975 1473.17 165.731 1473.17 173.329C1473.49 180.927 1473.65 188.05 1473.65 194.698C1473.96 201.029 1474.12 206.569 1474.12 211.318V325.76C1474.12 328.926 1473.33 331.142 1471.74 332.408C1470.47 333.358 1466.49 333.991 1459.82 334.307C1453.14 334.624 1441.7 334.782 1425.49 334.782ZM1590.94 334.782L1551.37 325.76L1558.04 243.609C1557.09 236.96 1556.29 230.154 1555.66 223.189C1555.02 216.225 1554.54 209.102 1554.23 201.821C1553.91 194.223 1553.43 186.942 1552.8 179.977C1552.48 172.696 1552.16 165.573 1551.84 158.608C1551.84 151.643 1551.68 145.154 1551.37 139.139C1551.37 133.124 1551.37 127.584 1551.37 122.518V11.4003C1551.37 8.23458 1552 6.17684 1553.27 5.22713C1554.86 3.96082 1558.99 3.16938 1565.67 2.85279C1572.66 2.53622 1584.11 2.37793 1600 2.37793V325.76C1600 331.775 1596.98 334.782 1590.94 334.782Z" fill="#070C11"/>
<path d="M1343.58 334.782V23.7468C1343.58 16.4656 1344.2 11.4003 1345.45 8.55116C1347.01 5.70198 1351.22 3.96082 1358.09 3.32767C1364.95 2.69451 1376.34 2.37793 1392.25 2.37793V325.76C1392.25 328.926 1391.47 331.142 1389.91 332.408C1388.66 333.358 1384.61 333.991 1377.74 334.307C1371.19 334.624 1359.8 334.782 1343.58 334.782Z" fill="#070C11"/>
<path d="M744.059 334.782V11.4003C744.059 11.4003 744.378 9.97574 745.017 7.12656C745.974 3.96081 748.685 2.37793 753.152 2.37793H867.524C867.524 15.3575 867.364 24.8548 867.045 30.8697C867.045 36.8847 866.407 40.8419 865.131 42.7413C863.855 44.6408 861.781 45.5905 858.91 45.5905H792.871V291.57H864.652C864.652 304.866 864.493 314.68 864.174 321.011C864.174 327.026 863.536 330.825 862.26 332.408C860.984 333.991 858.91 334.782 856.039 334.782H744.059ZM748.366 176.653V132.491H855.082C855.082 150.535 854.763 162.407 854.125 168.105C853.486 173.804 850.934 176.653 846.468 176.653H748.366Z" fill="#070C11"/>
<path d="M599.225 334.782V15.1992C599.225 10.7672 599.867 7.75972 601.151 6.17684C602.755 4.2774 606.927 3.16938 613.667 2.85279C620.728 2.53622 632.442 2.37793 648.81 2.37793V289.195H721.502V325.76C721.502 329.559 720.54 332.091 718.614 333.358C717.009 334.307 714.923 334.782 712.356 334.782H599.225Z" fill="#070C11"/>
<path d="M518.889 334.782V11.4003C518.889 8.23458 519.521 6.17684 520.783 5.22713C522.045 3.96082 525.99 3.16938 532.617 2.85279C539.245 2.53622 550.764 2.37793 567.175 2.37793V325.76C567.175 328.926 566.543 331.142 565.281 332.408C564.019 333.358 559.916 333.991 552.973 334.307C546.346 334.624 534.984 334.782 518.889 334.782ZM415.218 334.782V11.4003C415.218 8.23458 415.849 6.17684 417.112 5.22713C418.374 3.96082 422.319 3.16938 428.946 2.85279C435.574 2.53622 447.093 2.37793 463.503 2.37793V325.76C463.503 328.926 462.872 331.142 461.61 332.408C460.663 333.358 456.718 333.991 449.775 334.307C443.148 334.624 431.629 334.782 415.218 334.782ZM438.414 179.977V134.39H540.192L540.665 179.977H438.414Z" fill="#070C11"/>
<path d="M391.582 9.0533V45.743H99.7526C93.4582 45.743 89.1664 45.1077 86.8776 43.8371C84.5887 42.5664 83.4444 40.184 83.4444 36.6897L117.483 0H375.273C386.145 0 391.582 3.01777 391.582 9.0533Z" fill="#F22601"/>
<path d="M217.453 332.387C215.872 331.112 215.081 328.88 215.081 325.692V165.476C215.081 116.059 259.91 75.0967 286.784 48.0413C301.855 32.8689 333.5 0 382.506 0C388.514 0 391.519 3.02895 391.519 9.08685V45.9125H370.923C358.365 45.9125 302.105 43.469 286.784 57.9026C259.407 83.6937 263.464 170.02 263.464 170.02V334.779C247.652 334.779 236.426 334.619 229.786 334.3C222.829 333.982 218.718 333.344 217.453 332.387Z" fill="#F22601"/>
<path d="M206.969 334.747H201.028C201.028 334.747 168.96 242.803 146.553 177.194C145.37 172.667 139.089 159.349 128.122 159.349C114.413 159.349 106.601 179.195 109.02 194.788C111.439 210.381 136.272 249.489 123.773 294.256C111.274 339.023 28.417 352.603 7.65243 304.567C4.85096 298.086 -7.21261 274.712 6.24125 233.896C18.4388 196.892 52.8535 95.0668 75.2128 29.0688C81.1072 11.6703 97.4243 0.00268555 115.794 0.00268555H146.553L69.7445 220.818C56.7424 256.113 56.9766 301.076 82.8812 304.567C120.582 309.648 119.595 245.575 112.539 218.916C105.483 192.257 100.708 175.795 113.772 145.757C124.053 122.116 159.442 106.043 181.71 124.882C199.249 139.721 204.088 157.829 210.992 177.194L247.273 277.262C257.408 305.216 236.703 334.747 206.969 334.747Z" fill="#070C11"/>
<path d="M1259.56 334.744H1253.62C1253.62 334.744 1221.55 242.8 1199.14 177.191C1197.96 172.664 1191.68 159.347 1180.71 159.347C1167 159.347 1159.19 179.192 1161.61 194.785C1164.03 210.378 1188.86 249.486 1176.36 294.253C1163.86 339.02 1081.01 352.601 1060.24 304.565C1057.44 298.084 1045.38 274.71 1058.83 233.894C1071.03 196.889 1105.44 95.0642 1127.8 29.0661C1133.7 11.6676 1150.02 0 1168.38 0H1199.14L1122.34 220.816C1109.33 256.111 1109.57 301.074 1135.47 304.565C1173.17 309.645 1172.19 245.572 1165.13 218.913C1158.07 192.254 1153.3 175.792 1166.36 145.754C1176.64 122.113 1212.03 106.041 1234.3 124.88C1251.84 139.718 1256.68 157.826 1263.58 177.191L1299.86 277.26C1310 305.213 1289.29 334.744 1259.56 334.744Z" fill="#F22601"/>
<path d="M891.74 9.0533V45.743H1183.57C1189.86 45.743 1194.16 45.1077 1196.44 43.8371C1198.73 42.5664 1199.88 40.184 1199.88 36.6897V0H908.048C897.176 0 891.74 3.01777 891.74 9.0533Z" fill="#070C11"/>
<path d="M1065.87 332.387C1067.45 331.112 1068.24 328.88 1068.24 325.692V165.476C1068.24 116.059 1023.41 75.0967 996.538 48.0413C981.467 32.8689 949.822 0 900.816 0C894.807 0 891.803 3.02895 891.803 9.08685V45.9125H912.399C924.957 45.9125 981.217 43.469 996.538 57.9026C1023.91 83.6937 1019.86 170.02 1019.86 170.02V334.779C1035.67 334.779 1046.9 334.619 1053.54 334.3C1060.49 333.982 1064.6 333.344 1065.87 332.387Z" fill="#070C11"/>
</svg>
