<svg width="1600" height="335" viewBox="0 0 1600 335" fill="none" xmlns="http://www.w3.org/2000/svg">
<path d="M1553.75 334.783L1501.78 206.57C1499.23 199.606 1496.37 191.375 1493.19 181.877C1490.02 172.063 1486.84 161.616 1483.66 150.536C1480.8 139.456 1477.94 128.693 1475.08 118.246C1472.53 107.482 1470.15 97.6682 1467.92 88.8041C1465.7 79.9399 1463.79 72.817 1462.2 67.4352C1460.93 62.0534 1460.29 59.3625 1460.29 59.3625L1432.16 30.8707L1434.55 2.37891H1472.69L1523.71 128.218C1526.57 135.499 1529.59 144.205 1532.77 154.335C1535.95 164.466 1539.13 175.071 1542.31 186.151C1545.48 196.915 1548.35 207.52 1550.89 217.967C1553.75 228.097 1556.13 237.436 1558.04 245.984C1560.27 254.531 1562.01 261.338 1563.29 266.403C1564.56 271.468 1565.19 274.001 1565.19 274.001L1594.76 306.292L1590.94 334.783H1553.75ZM1425.49 334.783V11.4013C1425.49 5.38637 1428.51 2.37891 1434.55 2.37891L1474.12 11.4013L1466.97 83.5806C1467.92 89.5955 1468.56 96.2436 1468.88 103.525C1469.51 110.489 1470.15 118.087 1470.78 126.318C1471.42 134.233 1471.9 142.147 1472.21 150.061C1472.85 157.976 1473.17 165.732 1473.17 173.33C1473.49 180.928 1473.65 188.051 1473.65 194.699C1473.96 201.03 1474.12 206.57 1474.12 211.319V325.761C1474.12 328.927 1473.33 331.143 1471.74 332.409C1470.47 333.359 1466.49 333.992 1459.82 334.308C1453.14 334.625 1441.7 334.783 1425.49 334.783ZM1590.94 334.783L1551.37 325.761L1558.04 243.61C1557.09 236.961 1556.29 230.155 1555.66 223.19C1555.02 216.226 1554.54 209.103 1554.23 201.822C1553.91 194.224 1553.43 186.943 1552.8 179.978C1552.48 172.697 1552.16 165.574 1551.84 158.609C1551.84 151.644 1551.68 145.155 1551.37 139.14C1551.37 133.125 1551.37 127.585 1551.37 122.519V11.4013C1551.37 8.23556 1552 6.17782 1553.27 5.22811C1554.86 3.9618 1558.99 3.17035 1565.67 2.85376C1572.66 2.53719 1584.11 2.37891 1600 2.37891V325.761C1600 331.776 1596.98 334.783 1590.94 334.783Z" fill="#FEFEFE"/>
<path d="M1343.58 334.783V23.7478C1343.58 16.4665 1344.2 11.4013 1345.45 8.55214C1347.01 5.70296 1351.22 3.96179 1358.09 3.32865C1364.95 2.69549 1376.34 2.37891 1392.25 2.37891V325.761C1392.25 328.927 1391.47 331.143 1389.91 332.409C1388.66 333.359 1384.61 333.992 1377.74 334.308C1371.19 334.625 1359.8 334.783 1343.58 334.783Z" fill="#FEFEFE"/>
<path d="M744.059 334.783V11.4013C744.059 11.4013 744.378 9.97672 745.017 7.12754C745.974 3.96178 748.685 2.37891 753.152 2.37891H867.524C867.524 15.3585 867.364 24.8558 867.045 30.8707C867.045 36.8856 866.407 40.8428 865.131 42.7423C863.855 44.6418 861.781 45.5915 858.91 45.5915H792.871V291.571H864.652C864.652 304.867 864.493 314.681 864.174 321.012C864.174 327.027 863.536 330.826 862.26 332.409C860.984 333.992 858.91 334.783 856.039 334.783H744.059ZM748.366 176.654V132.491H855.082C855.082 150.536 854.763 162.408 854.125 168.106C853.486 173.805 850.934 176.654 846.468 176.654H748.366Z" fill="#FEFEFE"/>
<path d="M599.225 334.783V15.2002C599.225 10.7682 599.867 7.7607 601.151 6.17782C602.755 4.27837 606.927 3.17035 613.667 2.85376C620.728 2.53719 632.442 2.37891 648.81 2.37891V289.196H721.502V325.761C721.502 329.56 720.539 332.092 718.614 333.359C717.009 334.308 714.923 334.783 712.356 334.783H599.225Z" fill="#FEFEFE"/>
<path d="M518.889 334.783V11.4013C518.889 8.23556 519.521 6.17782 520.783 5.22811C522.045 3.9618 525.99 3.17035 532.618 2.85376C539.245 2.53719 550.764 2.37891 567.175 2.37891V325.761C567.175 328.927 566.543 331.143 565.281 332.409C564.019 333.359 559.916 333.992 552.973 334.308C546.346 334.625 534.984 334.783 518.889 334.783ZM415.218 334.783V11.4013C415.218 8.23556 415.849 6.17782 417.112 5.22811C418.374 3.9618 422.319 3.17035 428.946 2.85376C435.574 2.53719 447.093 2.37891 463.503 2.37891V325.761C463.503 328.927 462.872 331.143 461.61 332.409C460.663 333.359 456.718 333.992 449.775 334.308C443.148 334.625 431.629 334.783 415.218 334.783ZM438.414 179.978V134.391H540.192L540.665 179.978H438.414Z" fill="#FEFEFE"/>
<path d="M391.582 9.0533V45.743H99.7526C93.4582 45.743 89.1664 45.1077 86.8776 43.8371C84.5887 42.5664 83.4444 40.184 83.4444 36.6897L117.483 0H375.273C386.145 0 391.582 3.01777 391.582 9.0533Z" fill="#F22601"/>
<path d="M217.453 332.387C215.872 331.112 215.081 328.88 215.081 325.692V165.476C215.081 116.059 259.91 75.0967 286.784 48.0413C301.855 32.8689 333.5 0 382.506 0C388.514 0 391.519 3.02895 391.519 9.08685V45.9125H370.923C358.365 45.9125 302.105 43.469 286.784 57.9026C259.407 83.6937 263.464 170.02 263.464 170.02V334.779C247.652 334.779 236.426 334.619 229.786 334.3C222.829 333.982 218.718 333.344 217.453 332.387Z" fill="#F22601"/>
<path d="M206.969 334.748H201.028C201.028 334.748 168.96 242.804 146.553 177.195C145.37 172.668 139.089 159.351 128.122 159.351C114.413 159.351 106.601 179.196 109.02 194.789C111.439 210.382 136.272 249.49 123.773 294.257C111.274 339.024 28.417 352.605 7.65243 304.568C4.85096 298.088 -7.21261 274.713 6.24125 233.897C18.4388 196.893 52.8535 95.0681 75.2128 29.07C81.1072 11.6715 97.4243 0.00390625 115.794 0.00390625H146.553L69.7445 220.82C56.7424 256.115 56.9766 301.077 82.8812 304.568C120.582 309.649 119.595 245.576 112.539 218.917C105.483 192.258 100.708 175.796 113.772 145.758C124.053 122.117 159.442 106.044 181.71 124.884C199.249 139.722 204.088 157.83 210.992 177.195L247.273 277.264C257.408 305.217 236.703 334.748 206.969 334.748Z" fill="#FEFEFE"/>
<path d="M1259.56 334.744H1253.62C1253.62 334.744 1221.55 242.8 1199.14 177.191C1197.96 172.664 1191.68 159.347 1180.71 159.347C1167 159.347 1159.19 179.192 1161.61 194.785C1164.03 210.378 1188.86 249.486 1176.36 294.253C1163.86 339.02 1081.01 352.601 1060.24 304.565C1057.44 298.084 1045.38 274.71 1058.83 233.894C1071.03 196.889 1105.44 95.0642 1127.8 29.0661C1133.7 11.6676 1150.02 0 1168.39 0H1199.14L1122.34 220.816C1109.33 256.111 1109.57 301.074 1135.47 304.565C1173.17 309.645 1172.19 245.572 1165.13 218.913C1158.07 192.254 1153.3 175.792 1166.36 145.754C1176.64 122.113 1212.03 106.041 1234.3 124.88C1251.84 139.718 1256.68 157.826 1263.58 177.191L1299.86 277.26C1310 305.213 1289.29 334.744 1259.56 334.744Z" fill="#F22601"/>
<path d="M891.741 9.0533V45.743H1183.57C1189.86 45.743 1194.16 45.1077 1196.44 43.8371C1198.73 42.5664 1199.88 40.184 1199.88 36.6897V0H908.049C897.177 0 891.741 3.01777 891.741 9.0533Z" fill="#FEFEFE"/>
<path d="M1065.87 332.387C1067.45 331.112 1068.24 328.88 1068.24 325.692V165.476C1068.24 116.059 1023.41 75.0967 996.538 48.0413C981.467 32.8689 949.822 0 900.816 0C894.807 0 891.803 3.02895 891.803 9.08685V45.9125H912.399C924.957 45.9125 981.217 43.469 996.538 57.9026C1023.91 83.6937 1019.86 170.02 1019.86 170.02V334.779C1035.67 334.779 1046.9 334.619 1053.54 334.3C1060.49 333.982 1064.6 333.344 1065.87 332.387Z" fill="#FEFEFE"/>
</svg>
