<svg width="392" height="335" viewBox="0 0 392 335" fill="none" xmlns="http://www.w3.org/2000/svg">
<path d="M391.582 9.0533V45.743H99.7526C93.4582 45.743 89.1665 45.1077 86.8776 43.8371C84.5887 42.5664 83.4444 40.184 83.4444 36.6897L117.483 0H375.273C386.145 0 391.582 3.01777 391.582 9.0533Z" fill="#F22601"/>
<path d="M217.453 332.387C215.872 331.112 215.081 328.88 215.081 325.692V165.476C215.081 116.059 259.91 75.0967 286.784 48.0413C301.855 32.8689 333.5 0 382.506 0C388.514 0 391.519 3.02895 391.519 9.08685V45.9125H370.923C358.365 45.9125 302.105 43.469 286.784 57.9026C259.407 83.6937 263.464 170.02 263.464 170.02V334.779C247.652 334.779 236.426 334.619 229.786 334.3C222.829 333.982 218.718 333.344 217.453 332.387Z" fill="#F22601"/>
<path d="M206.969 334.748H201.028C201.028 334.748 168.96 242.804 146.553 177.195C145.37 172.668 139.089 159.351 128.122 159.351C114.413 159.351 106.601 179.196 109.02 194.789C111.439 210.382 136.272 249.49 123.773 294.257C111.274 339.024 28.417 352.605 7.65249 304.568C4.85102 298.088 -7.21255 274.713 6.24131 233.897C18.4388 196.893 52.8536 95.0681 75.2129 29.07C81.1073 11.6715 97.4243 0.00390625 115.794 0.00390625H146.553L69.7446 220.82C56.7424 256.115 56.9766 301.077 82.8813 304.568C120.582 309.649 119.595 245.576 112.539 218.917C105.483 192.258 100.708 175.796 113.772 145.758C124.053 122.117 159.442 106.044 181.71 124.884C199.249 139.722 204.088 157.83 210.992 177.195L247.273 277.264C257.408 305.217 236.703 334.748 206.969 334.748Z" fill="#FEFEFE"/>
</svg>
